<svg id="svg" version="1.1" xmlns="http://www.w3.org/2000/svg" xmlns:xlink="http://www.w3.org/1999/xlink" width="400" height="400" viewBox="0, 0, 400,400"><g id="svgg"><path id="path0" d="M138.990 203.985 C 139.112 204.182,137.634 204.436,135.706 204.551 C 130.866 204.837,127.876 205.221,127.388 205.617 C 127.162 205.801,125.955 205.993,124.706 206.044 C 123.458 206.094,122.529 206.285,122.642 206.468 C 122.755 206.650,122.027 206.800,121.024 206.800 C 120.021 206.800,119.200 206.980,119.200 207.200 C 119.200 207.420,118.570 207.600,117.800 207.600 C 117.030 207.600,116.400 207.780,116.400 208.000 C 116.400 208.220,115.669 208.400,114.776 208.400 C 113.883 208.400,113.237 208.536,113.339 208.701 C 113.441 208.867,112.895 209.018,112.125 209.038 C 111.355 209.057,110.607 209.243,110.463 209.450 C 110.318 209.657,109.930 209.809,109.600 209.788 C 109.270 209.767,108.696 210.003,108.325 210.314 C 107.954 210.624,107.481 210.774,107.274 210.646 C 107.067 210.518,106.290 210.719,105.549 211.092 C 104.217 211.763,103.476 212.006,102.500 212.090 C 102.225 212.114,102.000 212.283,102.000 212.467 C 102.000 212.650,101.640 212.800,101.200 212.800 C 100.760 212.800,100.400 212.941,100.400 213.113 C 100.400 213.285,99.915 213.466,99.322 213.515 C 98.730 213.564,98.143 213.769,98.019 213.970 C 97.894 214.171,97.531 214.395,97.212 214.468 C 96.893 214.541,96.275 214.915,95.840 215.300 C 95.405 215.685,94.667 216.000,94.200 216.000 C 93.733 216.000,92.964 216.360,92.492 216.800 C 92.020 217.240,91.463 217.600,91.255 217.600 C 90.724 217.600,87.429 219.335,87.267 219.700 C 87.193 219.865,86.788 220.000,86.367 220.000 C 85.945 220.000,85.600 220.180,85.600 220.400 C 85.600 220.620,85.229 220.800,84.776 220.800 C 84.323 220.800,84.045 220.950,84.158 221.132 C 84.271 221.315,83.742 221.709,82.982 222.007 C 82.222 222.305,81.600 222.696,81.600 222.875 C 81.600 223.054,81.364 223.200,81.075 223.200 C 80.787 223.200,80.164 223.560,79.692 224.000 C 79.220 224.440,78.686 224.800,78.506 224.800 C 78.326 224.800,77.621 225.295,76.940 225.900 C 75.880 226.840,73.897 228.105,72.892 228.481 C 72.731 228.541,71.986 229.170,71.235 229.878 C 70.484 230.587,69.674 231.055,69.435 230.919 C 69.196 230.783,69.120 230.806,69.267 230.969 C 69.623 231.367,68.601 232.346,66.328 233.784 C 65.299 234.435,64.536 235.097,64.633 235.254 C 64.730 235.410,64.222 235.951,63.505 236.455 C 62.787 236.959,62.146 237.496,62.079 237.648 C 61.814 238.256,59.568 240.400,59.197 240.400 C 58.978 240.400,58.800 240.552,58.800 240.739 C 58.800 240.925,58.440 241.493,58.000 242.000 C 57.560 242.507,57.200 242.777,57.200 242.599 C 57.200 242.421,56.750 242.799,56.200 243.438 C 55.651 244.077,55.201 244.723,55.200 244.873 C 55.200 245.023,54.840 245.260,54.400 245.400 C 53.960 245.540,53.599 245.867,53.599 246.127 C 53.598 246.387,53.068 246.955,52.421 247.389 C 51.773 247.822,51.303 248.236,51.374 248.308 C 51.446 248.380,51.167 248.835,50.753 249.319 C 48.496 251.963,48.001 252.648,48.000 253.124 C 48.000 253.412,47.820 253.536,47.600 253.400 C 47.380 253.264,47.200 253.433,47.200 253.776 C 47.200 254.119,46.990 254.400,46.733 254.400 C 46.477 254.400,46.379 254.512,46.516 254.650 C 46.654 254.787,46.369 255.231,45.883 255.636 C 45.397 256.042,45.162 256.379,45.359 256.387 C 45.557 256.394,45.168 256.926,44.495 257.569 C 43.822 258.212,43.376 258.842,43.503 258.969 C 43.629 259.096,43.523 259.200,43.267 259.200 C 43.010 259.200,42.800 259.436,42.800 259.725 C 42.800 260.013,42.433 260.643,41.984 261.125 C 41.536 261.606,41.311 262.006,41.484 262.013 C 41.658 262.020,41.528 262.245,41.195 262.513 C 40.862 262.781,40.371 263.495,40.104 264.100 C 39.836 264.705,39.433 265.200,39.209 265.200 C 38.984 265.200,38.800 265.487,38.800 265.838 C 38.800 266.492,37.280 268.894,36.714 269.133 C 36.542 269.207,36.400 269.612,36.400 270.033 C 36.400 270.455,36.220 270.800,36.000 270.800 C 35.780 270.800,35.600 271.261,35.600 271.824 C 35.600 272.404,35.427 272.740,35.200 272.600 C 34.980 272.464,34.800 272.636,34.800 272.982 C 34.800 273.575,34.061 275.161,33.581 275.600 C 33.461 275.710,32.868 276.880,32.265 278.200 C 31.661 279.520,30.904 281.110,30.584 281.732 C 30.263 282.355,30.000 283.120,30.000 283.432 C 30.000 283.745,29.808 284.000,29.573 284.000 C 29.328 284.000,29.254 284.341,29.400 284.800 C 29.551 285.277,29.472 285.600,29.203 285.600 C 28.956 285.600,28.864 285.780,29.000 286.000 C 29.136 286.220,29.057 286.400,28.824 286.400 C 28.591 286.400,28.400 286.760,28.400 287.200 C 28.400 287.640,28.265 288.000,28.100 288.000 C 27.935 288.000,27.773 288.474,27.739 289.053 C 27.706 289.631,27.474 290.230,27.226 290.384 C 26.977 290.538,26.879 290.941,27.009 291.280 C 27.140 291.619,27.011 292.145,26.723 292.448 C 26.435 292.752,26.208 293.360,26.218 293.800 C 26.228 294.240,26.007 294.968,25.726 295.419 C 25.445 295.869,25.290 296.630,25.383 297.110 C 25.475 297.590,25.382 298.088,25.175 298.215 C 24.969 298.343,24.800 298.887,24.800 299.424 C 24.800 299.961,24.638 300.400,24.440 300.400 C 24.242 300.400,23.984 301.165,23.866 302.100 C 23.504 304.970,23.120 306.574,22.650 307.177 C 22.290 307.639,22.319 307.683,22.800 307.400 C 23.282 307.116,23.310 307.160,22.945 307.623 C 22.419 308.290,22.036 310.563,21.740 314.769 C 21.618 316.508,21.399 317.522,21.211 317.217 C 21.034 316.931,20.863 318.554,20.831 320.824 C 20.799 323.093,20.616 325.141,20.424 325.375 C 19.980 325.916,19.851 338.139,20.292 337.867 C 20.473 337.755,20.674 338.864,20.738 340.332 C 20.803 341.799,21.023 343.060,21.228 343.133 C 21.432 343.207,21.600 343.972,21.600 344.833 C 21.600 345.695,21.780 346.400,22.000 346.400 C 22.220 346.400,22.400 346.940,22.400 347.600 C 22.400 348.260,22.580 348.800,22.800 348.800 C 23.020 348.800,23.200 349.351,23.200 350.024 C 23.200 350.737,23.367 351.144,23.600 351.000 C 23.827 350.860,24.000 351.196,24.000 351.776 C 24.000 352.339,24.180 352.800,24.400 352.800 C 24.620 352.800,24.800 353.160,24.800 353.600 C 24.800 354.040,24.980 354.400,25.200 354.400 C 25.420 354.400,25.571 354.535,25.535 354.700 C 25.413 355.266,26.368 357.168,27.184 357.984 C 27.633 358.433,27.895 358.800,27.766 358.800 C 27.638 358.800,28.088 359.501,28.766 360.358 C 29.445 361.214,30.000 362.021,30.000 362.150 C 30.000 362.617,37.522 369.945,37.758 369.709 C 37.891 369.576,38.000 369.777,38.000 370.157 C 38.000 370.537,38.169 370.743,38.376 370.615 C 38.583 370.487,39.348 370.900,40.076 371.532 C 41.715 372.955,45.041 374.825,45.362 374.504 C 45.493 374.374,45.600 374.477,45.600 374.733 C 45.600 374.990,45.836 375.200,46.125 375.200 C 46.414 375.200,47.395 375.560,48.306 376.000 C 49.216 376.440,50.240 376.800,50.581 376.800 C 50.921 376.800,51.200 376.980,51.200 377.200 C 51.200 377.420,51.740 377.600,52.400 377.600 C 53.060 377.600,53.600 377.780,53.600 378.000 C 53.600 378.220,54.320 378.400,55.200 378.400 C 56.080 378.400,56.800 378.580,56.800 378.800 C 56.800 379.022,57.859 379.200,59.176 379.200 C 60.483 379.200,61.664 379.379,61.799 379.598 C 61.961 379.861,92.060 379.996,150.000 379.996 C 207.940 379.996,238.039 379.861,238.201 379.598 C 238.336 379.379,239.517 379.200,240.824 379.200 C 242.141 379.200,243.200 379.022,243.200 378.800 C 243.200 378.580,243.905 378.400,244.767 378.400 C 245.628 378.400,246.393 378.237,246.467 378.038 C 246.540 377.839,247.050 377.614,247.600 377.538 C 248.150 377.462,248.700 377.266,248.822 377.102 C 248.945 376.938,249.517 376.765,250.094 376.717 C 250.670 376.669,251.055 376.488,250.948 376.315 C 250.840 376.142,251.213 376.000,251.776 376.000 C 252.339 376.000,252.800 375.841,252.800 375.647 C 252.800 375.370,253.684 374.978,254.697 374.806 C 254.786 374.791,255.856 374.200,258.441 372.738 C 258.964 372.442,259.675 371.896,260.021 371.525 C 260.367 371.154,260.893 370.794,261.189 370.725 C 261.484 370.656,262.540 369.835,263.535 368.900 C 264.529 367.965,265.502 367.200,265.695 367.200 C 265.889 367.200,265.928 367.008,265.783 366.773 C 265.638 366.538,265.897 366.247,266.360 366.126 C 266.822 366.006,267.200 365.752,267.200 365.564 C 267.200 365.375,267.965 364.440,268.900 363.486 C 269.835 362.532,270.653 361.492,270.717 361.175 C 270.781 360.859,271.141 360.322,271.517 359.982 C 271.893 359.642,272.442 358.942,272.738 358.427 C 274.425 355.487,274.721 354.854,274.505 354.638 C 274.374 354.507,274.477 354.400,274.733 354.400 C 274.990 354.400,275.200 354.051,275.200 353.624 C 275.200 353.197,275.380 352.736,275.600 352.600 C 275.820 352.464,276.000 351.993,276.000 351.553 C 276.000 351.113,276.142 350.840,276.315 350.948 C 276.488 351.055,276.670 350.660,276.719 350.071 C 276.767 349.482,276.985 348.940,277.203 348.867 C 277.422 348.793,277.600 348.208,277.600 347.567 C 277.600 346.925,277.780 346.400,278.000 346.400 C 278.220 346.400,278.400 345.680,278.400 344.800 C 278.400 343.920,278.580 343.200,278.800 343.200 C 279.022 343.200,279.200 342.141,279.200 340.824 C 279.200 339.517,279.385 338.333,279.610 338.194 C 279.863 338.037,280.004 335.795,279.976 332.368 C 279.946 328.717,279.791 326.882,279.526 327.046 C 279.303 327.184,279.336 326.893,279.600 326.400 C 279.918 325.807,279.931 325.595,279.640 325.775 C 279.330 325.967,279.200 324.684,279.200 321.424 C 279.200 318.881,279.035 316.800,278.834 316.800 C 278.633 316.800,278.369 315.675,278.248 314.300 C 277.820 309.454,277.519 307.600,277.161 307.600 C 276.963 307.600,276.800 306.700,276.800 305.600 C 276.800 304.500,276.620 303.600,276.400 303.600 C 276.180 303.600,276.000 302.880,276.000 302.000 C 276.000 301.120,275.820 300.400,275.600 300.400 C 275.380 300.400,275.200 299.770,275.200 299.000 C 275.200 298.230,275.001 297.600,274.757 297.600 C 274.511 297.600,274.426 297.309,274.566 296.944 C 274.705 296.583,274.530 295.848,274.179 295.311 C 273.827 294.775,273.649 294.049,273.783 293.700 C 273.917 293.350,273.832 292.943,273.594 292.796 C 273.355 292.649,273.133 292.094,273.099 291.564 C 273.066 291.034,272.872 290.485,272.669 290.345 C 272.466 290.206,272.300 289.621,272.300 289.045 C 272.300 288.470,272.143 288.000,271.950 288.000 C 271.757 288.000,271.600 287.640,271.600 287.200 C 271.600 286.760,271.459 286.400,271.287 286.400 C 271.115 286.400,270.934 285.905,270.884 285.300 C 270.834 284.695,270.615 284.140,270.397 284.067 C 270.178 283.993,270.000 283.588,270.000 283.167 C 270.000 282.745,269.856 282.400,269.680 282.400 C 269.505 282.400,269.108 281.725,268.798 280.900 C 268.105 279.051,268.153 279.186,267.800 278.100 C 267.638 277.605,267.348 277.200,267.153 277.200 C 266.959 277.200,266.800 276.840,266.800 276.400 C 266.800 275.960,266.665 275.599,266.500 275.597 C 266.141 275.593,265.200 273.656,265.200 272.920 C 265.200 272.634,265.020 272.400,264.800 272.400 C 264.580 272.400,264.400 272.040,264.400 271.600 C 264.400 271.160,264.220 270.800,264.000 270.800 C 263.780 270.800,263.600 270.607,263.600 270.372 C 263.600 270.137,263.030 269.116,262.333 268.103 C 261.637 267.091,261.067 266.023,261.067 265.731 C 261.067 265.439,260.979 265.287,260.873 265.394 C 260.766 265.501,260.468 265.186,260.210 264.694 C 259.284 262.927,258.588 261.827,257.900 261.045 C 257.515 260.607,257.200 260.002,257.200 259.701 C 257.200 259.395,257.000 259.276,256.748 259.432 C 256.482 259.597,256.367 259.499,256.469 259.194 C 256.563 258.910,256.272 258.289,255.820 257.815 C 254.350 256.269,252.815 254.210,252.807 253.772 C 252.803 253.537,252.395 252.977,251.900 252.529 C 250.726 251.466,249.932 250.444,249.232 249.094 C 248.920 248.492,248.425 248.000,248.132 248.000 C 247.840 248.000,247.600 247.859,247.600 247.687 C 247.600 247.515,246.520 246.274,245.200 244.929 C 243.880 243.584,242.800 242.562,242.800 242.656 C 242.800 242.751,242.374 242.417,241.853 241.914 C 241.332 241.411,240.982 240.865,241.076 240.700 C 241.170 240.535,240.937 240.400,240.557 240.400 C 240.177 240.400,239.966 240.301,240.087 240.180 C 240.336 239.930,235.980 235.600,235.479 235.600 C 235.300 235.600,235.264 235.420,235.400 235.200 C 235.536 234.980,235.457 234.800,235.224 234.800 C 234.537 234.800,234.329 234.665,232.924 233.300 C 232.188 232.585,231.409 232.000,231.193 232.000 C 230.977 232.000,230.800 231.719,230.800 231.376 C 230.800 231.033,230.649 230.846,230.465 230.960 C 230.281 231.073,229.516 230.587,228.765 229.878 C 228.014 229.170,227.279 228.593,227.132 228.595 C 226.985 228.598,226.415 228.210,225.866 227.732 C 225.318 227.255,224.763 226.970,224.634 227.099 C 224.505 227.228,224.400 227.113,224.400 226.843 C 224.400 226.573,224.243 226.450,224.050 226.569 C 223.858 226.688,223.365 226.338,222.955 225.792 C 222.546 225.247,221.975 224.800,221.688 224.800 C 221.401 224.800,220.780 224.440,220.308 224.000 C 219.836 223.560,219.213 223.200,218.925 223.200 C 218.636 223.200,218.400 223.054,218.400 222.875 C 218.400 222.696,217.778 222.305,217.018 222.007 C 216.258 221.709,215.729 221.315,215.842 221.132 C 215.955 220.950,215.677 220.800,215.224 220.800 C 214.771 220.800,214.400 220.620,214.400 220.400 C 214.400 220.180,214.113 220.000,213.762 220.000 C 213.411 220.000,212.633 219.651,212.034 219.224 C 211.434 218.797,210.694 218.392,210.388 218.324 C 210.082 218.256,209.475 217.885,209.040 217.500 C 208.605 217.115,208.019 216.800,207.737 216.800 C 207.455 216.800,206.583 216.440,205.800 216.000 C 205.017 215.560,204.101 215.200,203.764 215.200 C 203.428 215.200,203.264 215.020,203.400 214.800 C 203.536 214.580,203.277 214.400,202.824 214.400 C 202.371 214.400,202.000 214.220,202.000 214.000 C 202.000 213.780,201.449 213.600,200.776 213.600 C 200.063 213.600,199.656 213.433,199.800 213.200 C 199.940 212.973,199.604 212.800,199.024 212.800 C 198.461 212.800,198.000 212.601,198.000 212.357 C 198.000 212.114,197.752 212.010,197.449 212.126 C 197.146 212.242,196.696 212.136,196.449 211.889 C 196.202 211.642,196.000 211.563,196.000 211.713 C 196.000 211.863,195.365 211.629,194.588 211.193 C 193.811 210.757,192.731 210.400,192.188 210.400 C 191.645 210.400,191.200 210.209,191.200 209.976 C 191.200 209.743,191.039 209.652,190.842 209.774 C 190.645 209.896,190.013 209.752,189.438 209.453 C 188.863 209.155,187.944 208.960,187.396 209.020 C 186.848 209.080,186.400 208.965,186.400 208.765 C 186.400 208.564,185.871 208.400,185.224 208.400 C 184.577 208.400,183.936 208.220,183.800 208.000 C 183.664 207.780,182.933 207.600,182.176 207.600 C 181.419 207.600,180.800 207.420,180.800 207.200 C 180.800 206.980,179.979 206.800,178.976 206.800 C 177.973 206.800,177.245 206.650,177.358 206.468 C 177.471 206.285,176.542 206.094,175.294 206.044 C 174.045 205.993,172.838 205.801,172.612 205.617 C 172.139 205.233,169.248 204.853,164.500 204.551 C 162.685 204.436,161.200 204.180,161.200 203.984 C 161.200 203.782,156.306 203.626,149.984 203.626 C 143.479 203.626,138.862 203.777,138.990 203.985 " stroke="none" fill="#2cb4f4" fill-rule="evenodd"></path><path id="path1" d="M143.400 20.400 C 143.264 20.620,141.759 20.800,140.056 20.800 C 138.133 20.800,136.756 20.989,136.421 21.300 C 135.984 21.706,135.942 21.688,136.200 21.200 C 136.458 20.712,136.416 20.694,135.979 21.100 C 135.682 21.375,134.677 21.600,133.744 21.600 C 132.811 21.600,131.936 21.780,131.800 22.000 C 131.664 22.220,130.843 22.400,129.976 22.400 C 129.109 22.400,128.400 22.580,128.400 22.800 C 128.400 23.020,127.770 23.200,127.000 23.200 C 126.230 23.200,125.600 23.380,125.600 23.600 C 125.600 23.820,125.058 24.000,124.395 24.000 C 123.732 24.000,122.877 24.167,122.495 24.370 C 121.799 24.741,118.435 25.873,117.079 26.192 C 116.683 26.286,115.800 26.641,115.118 26.981 C 114.435 27.321,113.635 27.600,113.339 27.600 C 113.042 27.600,112.800 27.780,112.800 28.000 C 112.800 28.220,112.440 28.400,112.000 28.400 C 111.560 28.400,111.200 28.546,111.200 28.725 C 111.200 28.904,110.570 29.298,109.800 29.600 C 109.030 29.902,108.400 30.296,108.400 30.475 C 108.400 30.654,108.040 30.800,107.600 30.800 C 107.160 30.800,106.800 30.980,106.800 31.200 C 106.800 31.420,106.455 31.600,106.033 31.600 C 105.612 31.600,105.207 31.767,105.133 31.970 C 105.060 32.174,104.738 32.399,104.418 32.470 C 104.098 32.542,103.412 33.008,102.892 33.508 C 102.373 34.007,101.752 34.294,101.512 34.146 C 101.251 33.985,101.191 34.062,101.362 34.338 C 101.528 34.608,101.401 34.800,101.057 34.800 C 100.732 34.800,100.407 34.967,100.333 35.170 C 100.260 35.374,99.932 35.599,99.604 35.670 C 99.276 35.742,98.529 36.295,97.943 36.900 C 97.358 37.505,96.675 38.000,96.426 38.000 C 96.177 38.000,95.378 38.585,94.651 39.300 C 93.923 40.015,92.637 41.140,91.792 41.800 C 89.647 43.476,83.498 49.653,82.372 51.263 C 81.858 51.998,81.114 52.891,80.719 53.247 C 80.324 53.603,80.000 54.098,80.000 54.347 C 80.000 54.596,79.820 54.800,79.600 54.800 C 79.380 54.800,79.200 55.030,79.200 55.312 C 79.200 55.593,78.840 56.083,78.400 56.400 C 77.960 56.717,77.600 57.278,77.600 57.646 C 77.600 58.013,77.349 58.411,77.042 58.528 C 76.736 58.646,76.061 59.610,75.542 60.671 C 75.024 61.732,74.285 62.949,73.900 63.375 C 73.515 63.802,73.200 64.387,73.200 64.675 C 73.200 64.964,73.020 65.200,72.800 65.200 C 72.580 65.200,72.400 65.560,72.400 66.000 C 72.400 66.440,72.220 66.800,72.000 66.800 C 71.780 66.800,71.600 67.160,71.600 67.600 C 71.600 68.040,71.420 68.400,71.200 68.400 C 70.980 68.400,70.800 68.760,70.800 69.200 C 70.800 69.640,70.620 70.000,70.400 70.000 C 70.180 70.000,70.000 70.360,70.000 70.800 C 70.000 71.240,69.820 71.600,69.600 71.600 C 69.380 71.600,69.200 71.960,69.200 72.400 C 69.200 72.840,69.020 73.200,68.800 73.200 C 68.580 73.200,68.400 73.740,68.400 74.400 C 68.400 75.060,68.220 75.600,68.000 75.600 C 67.780 75.600,67.600 75.960,67.600 76.400 C 67.600 76.840,67.420 77.200,67.200 77.200 C 66.980 77.200,66.800 77.502,66.800 77.872 C 66.800 78.624,66.087 81.033,65.551 82.095 C 65.358 82.477,65.200 83.231,65.200 83.771 C 65.200 84.311,65.020 84.864,64.800 85.000 C 64.580 85.136,64.400 85.856,64.400 86.600 C 64.400 87.344,64.239 88.052,64.042 88.174 C 63.668 88.405,63.313 90.294,62.947 94.000 C 62.827 95.210,62.565 96.371,62.365 96.580 C 61.876 97.089,61.888 119.727,62.377 120.220 C 62.584 120.429,62.795 121.635,62.845 122.900 C 62.896 124.165,63.086 125.200,63.268 125.200 C 63.451 125.200,63.600 125.999,63.600 126.976 C 63.600 127.953,63.780 128.864,64.000 129.000 C 64.220 129.136,64.400 129.856,64.400 130.600 C 64.400 131.344,64.580 132.064,64.800 132.200 C 65.020 132.336,65.200 132.977,65.200 133.624 C 65.200 134.271,65.380 134.800,65.600 134.800 C 65.820 134.800,66.000 135.340,66.000 136.000 C 66.000 136.660,66.180 137.200,66.400 137.200 C 66.620 137.200,66.800 137.562,66.800 138.005 C 66.800 138.448,66.980 139.168,67.200 139.605 C 67.420 140.042,67.780 140.758,68.000 141.195 C 68.220 141.632,68.400 142.262,68.400 142.595 C 68.400 142.928,68.580 143.200,68.800 143.200 C 69.020 143.200,69.200 143.560,69.200 144.000 C 69.200 144.440,69.380 144.800,69.600 144.800 C 69.820 144.800,70.000 145.034,70.000 145.320 C 70.000 146.056,70.941 147.993,71.300 147.997 C 71.465 147.999,71.600 148.360,71.600 148.800 C 71.600 149.240,71.780 149.600,72.000 149.600 C 72.220 149.600,72.400 149.960,72.400 150.400 C 72.400 150.840,72.535 151.201,72.700 151.203 C 73.059 151.207,74.000 153.144,74.000 153.880 C 74.000 154.166,74.152 154.400,74.337 154.400 C 74.522 154.400,75.013 155.030,75.428 155.800 C 75.843 156.570,76.321 157.200,76.491 157.200 C 76.661 157.200,76.800 157.520,76.800 157.912 C 76.800 158.303,77.160 158.883,77.600 159.200 C 78.040 159.517,78.400 159.972,78.400 160.210 C 78.400 160.449,79.030 161.331,79.800 162.172 C 80.570 163.013,81.200 163.859,81.200 164.053 C 81.200 164.520,93.640 176.800,94.113 176.800 C 94.314 176.800,94.983 177.340,95.600 178.000 C 96.217 178.660,96.919 179.200,97.160 179.200 C 97.402 179.200,97.600 179.380,97.600 179.600 C 97.600 179.820,97.830 180.000,98.112 180.000 C 98.393 180.000,98.883 180.360,99.200 180.800 C 99.517 181.240,100.097 181.600,100.488 181.600 C 100.880 181.600,101.200 181.780,101.200 182.000 C 101.200 182.220,101.481 182.400,101.824 182.400 C 102.167 182.400,102.336 182.580,102.200 182.800 C 102.064 183.020,102.323 183.200,102.776 183.200 C 103.229 183.200,103.600 183.380,103.600 183.600 C 103.600 183.820,103.920 184.000,104.312 184.000 C 104.703 184.000,105.283 184.360,105.600 184.800 C 105.917 185.240,106.362 185.599,106.588 185.597 C 107.175 185.592,113.741 188.920,114.094 189.400 C 114.256 189.620,114.391 189.659,114.394 189.486 C 114.397 189.313,114.805 189.395,115.300 189.667 C 115.795 189.939,116.380 190.206,116.600 190.261 C 116.820 190.315,117.720 190.631,118.600 190.962 C 119.480 191.294,120.594 191.573,121.076 191.582 C 121.558 191.592,122.064 191.780,122.200 192.000 C 122.336 192.220,122.977 192.400,123.624 192.400 C 124.271 192.400,124.800 192.580,124.800 192.800 C 124.800 193.020,125.340 193.200,126.000 193.200 C 126.660 193.200,127.200 193.380,127.200 193.600 C 127.200 193.820,128.010 194.000,129.000 194.000 C 129.990 194.000,130.800 194.180,130.800 194.400 C 130.800 194.620,131.700 194.800,132.800 194.800 C 133.900 194.800,134.800 194.980,134.800 195.200 C 134.800 195.429,136.000 195.600,137.600 195.600 C 139.200 195.600,140.400 195.771,140.400 196.000 C 140.400 196.256,143.867 196.400,150.000 196.400 C 156.133 196.400,159.600 196.256,159.600 196.000 C 159.600 195.771,160.800 195.600,162.400 195.600 C 164.000 195.600,165.200 195.429,165.200 195.200 C 165.200 194.980,166.100 194.800,167.200 194.800 C 168.300 194.800,169.200 194.620,169.200 194.400 C 169.200 194.180,170.010 194.000,171.000 194.000 C 171.990 194.000,172.800 193.820,172.800 193.600 C 172.800 193.380,173.340 193.200,174.000 193.200 C 174.660 193.200,175.200 193.020,175.200 192.800 C 175.200 192.580,175.729 192.400,176.376 192.400 C 177.023 192.400,177.664 192.220,177.800 192.000 C 177.936 191.780,178.390 191.600,178.810 191.600 C 179.784 191.600,183.087 190.542,184.444 189.796 C 185.018 189.480,185.603 189.336,185.744 189.477 C 185.885 189.618,186.000 189.523,186.000 189.267 C 186.000 189.010,186.315 188.796,186.700 188.791 C 187.085 188.786,187.850 188.430,188.400 188.000 C 188.950 187.570,189.715 187.214,190.100 187.209 C 190.485 187.204,190.800 187.064,190.800 186.898 C 190.800 186.603,192.957 185.508,193.395 185.580 C 193.516 185.600,194.006 185.253,194.483 184.808 C 194.960 184.364,195.572 184.000,195.842 184.000 C 196.112 184.000,196.393 183.833,196.467 183.630 C 196.540 183.426,196.870 183.201,197.200 183.130 C 197.530 183.058,198.091 182.685,198.447 182.300 C 198.803 181.915,199.398 181.600,199.771 181.600 C 200.143 181.600,200.336 181.420,200.200 181.200 C 200.064 180.980,200.233 180.800,200.576 180.800 C 200.919 180.800,201.200 180.620,201.200 180.400 C 201.200 180.180,201.378 180.000,201.595 180.000 C 202.016 180.000,203.107 179.174,204.632 177.700 C 205.144 177.205,205.716 176.800,205.901 176.800 C 206.407 176.800,218.400 164.897,218.400 164.396 C 218.400 164.158,218.805 163.544,219.300 163.032 C 220.677 161.607,221.600 160.424,221.600 160.084 C 221.600 159.915,221.950 159.524,222.379 159.215 C 222.807 158.907,223.075 158.522,222.975 158.359 C 222.875 158.197,223.101 157.757,223.477 157.380 C 224.200 156.657,226.278 153.084,226.665 151.900 C 226.791 151.515,227.052 151.200,227.247 151.200 C 227.441 151.200,227.600 150.840,227.600 150.400 C 227.600 149.960,227.780 149.600,228.000 149.600 C 228.220 149.600,228.400 149.240,228.400 148.800 C 228.400 148.360,228.580 148.000,228.800 148.000 C 229.020 148.000,229.200 147.640,229.200 147.200 C 229.200 146.760,229.380 146.400,229.600 146.400 C 229.820 146.400,230.000 146.040,230.000 145.600 C 230.000 145.160,230.180 144.800,230.400 144.800 C 230.620 144.800,230.800 144.440,230.800 144.000 C 230.800 143.560,230.980 143.200,231.200 143.200 C 231.420 143.200,231.600 142.928,231.600 142.595 C 231.600 142.262,231.780 141.632,232.000 141.195 C 232.220 140.758,232.580 140.042,232.800 139.605 C 233.020 139.168,233.200 138.448,233.200 138.005 C 233.200 137.562,233.380 137.200,233.600 137.200 C 233.820 137.200,234.000 136.660,234.000 136.000 C 234.000 135.340,234.160 134.800,234.356 134.800 C 234.552 134.800,234.809 134.215,234.927 133.500 C 235.046 132.785,235.351 131.390,235.607 130.400 C 235.862 129.410,236.164 127.835,236.276 126.900 C 236.389 125.965,236.612 125.200,236.772 125.200 C 236.932 125.200,237.105 124.170,237.156 122.912 C 237.207 121.653,237.407 120.433,237.600 120.200 C 238.077 119.626,238.125 97.235,237.651 96.655 C 237.446 96.405,237.177 95.210,237.053 94.000 C 236.596 89.565,236.311 88.000,235.960 88.000 C 235.762 88.000,235.600 87.280,235.600 86.400 C 235.600 85.520,235.420 84.800,235.200 84.800 C 234.980 84.800,234.800 84.271,234.800 83.624 C 234.800 82.977,234.620 82.336,234.400 82.200 C 234.180 82.064,234.000 81.434,234.000 80.800 C 234.000 80.166,233.820 79.536,233.600 79.400 C 233.380 79.264,233.200 78.713,233.200 78.176 C 233.200 77.639,233.020 77.200,232.800 77.200 C 232.580 77.200,232.400 76.855,232.400 76.433 C 232.400 76.012,232.222 75.607,232.003 75.533 C 231.785 75.460,231.566 74.905,231.516 74.300 C 231.466 73.695,231.285 73.200,231.113 73.200 C 230.941 73.200,230.800 72.840,230.800 72.400 C 230.800 71.960,230.620 71.600,230.400 71.600 C 230.180 71.600,230.000 71.240,230.000 70.800 C 230.000 70.360,229.820 70.000,229.600 70.000 C 229.380 70.000,229.200 69.640,229.200 69.200 C 229.200 68.760,229.020 68.400,228.800 68.400 C 228.580 68.400,228.400 68.055,228.400 67.633 C 228.400 67.212,228.265 66.807,228.100 66.733 C 227.935 66.660,227.367 65.745,226.837 64.700 C 226.308 63.655,225.723 62.800,225.537 62.800 C 225.352 62.800,225.200 62.524,225.200 62.186 C 225.200 61.611,224.327 60.020,223.405 58.914 C 223.182 58.647,222.768 58.152,222.484 57.814 C 222.201 57.476,222.093 57.200,222.245 57.200 C 222.398 57.200,222.135 56.864,221.661 56.453 C 221.188 56.042,220.800 55.502,220.800 55.253 C 220.800 55.004,220.620 54.800,220.400 54.800 C 220.180 54.800,220.000 54.602,220.000 54.360 C 220.000 54.119,219.460 53.417,218.800 52.800 C 218.140 52.183,217.600 51.503,217.600 51.287 C 217.600 51.071,215.890 49.165,213.800 47.052 C 211.710 44.938,210.000 43.276,210.000 43.358 C 210.000 43.561,207.943 41.775,205.787 39.700 C 204.816 38.765,203.863 38.000,203.670 38.000 C 203.477 38.000,202.754 37.460,202.063 36.800 C 201.372 36.140,200.575 35.600,200.292 35.600 C 200.009 35.600,199.517 35.240,199.200 34.800 C 198.883 34.360,198.386 34.000,198.095 34.000 C 197.804 34.000,197.180 33.640,196.708 33.200 C 196.236 32.760,195.613 32.400,195.325 32.400 C 195.036 32.400,194.800 32.220,194.800 32.000 C 194.800 31.780,194.440 31.600,194.000 31.600 C 193.560 31.600,193.200 31.420,193.200 31.200 C 193.200 30.980,192.840 30.800,192.400 30.800 C 191.960 30.800,191.600 30.654,191.600 30.475 C 191.600 30.296,190.970 29.902,190.200 29.600 C 189.430 29.298,188.800 28.904,188.800 28.725 C 188.800 28.546,188.440 28.400,188.000 28.400 C 187.560 28.400,187.200 28.220,187.200 28.000 C 187.200 27.780,186.876 27.600,186.480 27.600 C 186.084 27.600,185.589 27.438,185.380 27.239 C 184.987 26.866,181.457 25.564,180.400 25.403 C 179.630 25.285,178.390 24.843,177.505 24.371 C 177.123 24.167,176.268 24.000,175.605 24.000 C 174.942 24.000,174.400 23.820,174.400 23.600 C 174.400 23.380,173.871 23.200,173.224 23.200 C 172.577 23.200,171.936 23.020,171.800 22.800 C 171.664 22.580,170.854 22.400,170.000 22.400 C 169.146 22.400,168.336 22.220,168.200 22.000 C 168.064 21.780,167.164 21.600,166.200 21.600 C 165.236 21.600,164.336 21.420,164.200 21.200 C 164.064 20.980,162.354 20.800,160.400 20.800 C 158.446 20.800,156.736 20.620,156.600 20.400 C 156.452 20.161,153.804 20.000,150.000 20.000 C 146.196 20.000,143.548 20.161,143.400 20.400 M321.600 108.000 C 321.600 108.220,320.880 108.400,320.000 108.400 C 319.048 108.400,318.400 108.589,318.400 108.867 C 318.400 109.123,318.292 109.226,318.160 109.094 C 317.701 108.634,314.653 110.564,312.609 112.609 C 310.564 114.653,308.634 117.701,309.094 118.160 C 309.226 118.292,309.160 118.400,308.948 118.400 C 308.737 118.400,308.519 119.075,308.464 119.900 C 308.410 120.725,308.193 121.460,307.982 121.533 C 307.749 121.615,307.600 127.108,307.600 135.633 L 307.600 149.600 292.824 149.600 C 283.404 149.600,277.958 149.745,277.800 150.000 C 277.664 150.220,277.191 150.400,276.748 150.400 C 276.305 150.400,275.671 150.672,275.339 151.004 C 275.007 151.336,274.542 151.488,274.306 151.342 C 274.051 151.185,273.993 151.264,274.162 151.538 C 274.319 151.792,274.233 152.000,273.971 152.000 C 273.708 152.000,273.200 152.315,272.841 152.700 C 272.482 153.085,271.843 153.592,271.421 153.827 C 270.999 154.061,270.461 154.599,270.227 155.021 C 269.992 155.443,269.485 156.082,269.100 156.441 C 268.715 156.800,268.400 157.388,268.400 157.747 C 268.400 158.106,268.220 158.400,268.000 158.400 C 267.780 158.400,267.600 158.760,267.600 159.200 C 267.600 159.640,267.420 160.000,267.200 160.000 C 266.980 160.000,266.800 160.551,266.800 161.224 C 266.800 161.985,266.640 162.348,266.375 162.185 C 266.081 162.003,266.005 163.319,266.127 166.461 C 266.316 171.316,266.674 173.600,267.245 173.600 C 267.440 173.600,267.600 173.960,267.600 174.400 C 267.600 174.840,267.780 175.200,268.000 175.200 C 268.220 175.200,268.400 175.473,268.400 175.807 C 268.400 176.498,273.153 181.332,274.027 181.530 C 274.342 181.602,274.660 181.827,274.733 182.030 C 274.807 182.234,275.182 182.400,275.567 182.400 C 275.952 182.400,276.390 182.523,276.541 182.674 C 277.656 183.789,280.242 183.988,293.700 183.994 L 307.600 184.000 307.600 197.776 C 307.600 206.529,307.746 211.643,308.000 211.800 C 308.220 211.936,308.400 212.455,308.400 212.952 C 308.400 214.206,309.596 217.600,310.038 217.600 C 310.237 217.600,310.400 217.870,310.400 218.200 C 310.400 218.530,310.580 218.800,310.800 218.800 C 311.020 218.800,311.200 218.986,311.200 219.213 C 311.200 220.412,318.229 225.238,318.940 224.527 C 319.083 224.384,319.200 224.484,319.200 224.750 C 319.200 225.108,320.703 225.219,325.000 225.178 C 328.820 225.142,330.800 224.977,330.800 224.695 C 330.800 224.459,330.912 224.379,331.049 224.516 C 331.779 225.246,338.800 220.442,338.800 219.213 C 338.800 218.986,338.980 218.800,339.200 218.800 C 339.420 218.800,339.600 218.545,339.600 218.233 C 339.600 217.922,339.782 217.606,340.004 217.532 C 340.226 217.458,340.484 217.005,340.576 216.525 C 340.668 216.045,340.937 215.292,341.172 214.852 C 341.407 214.412,341.600 213.511,341.600 212.850 C 341.600 212.188,341.780 211.536,342.000 211.400 C 342.254 211.243,342.400 206.196,342.400 197.576 L 342.400 184.000 356.300 183.994 C 369.758 183.988,372.344 183.789,373.459 182.674 C 373.610 182.523,374.063 182.400,374.467 182.400 C 374.870 182.400,375.200 182.220,375.200 182.000 C 375.200 181.780,375.474 181.600,375.809 181.600 C 376.498 181.600,380.800 177.450,380.800 176.785 C 380.800 176.547,380.980 176.464,381.200 176.600 C 381.420 176.736,381.600 176.477,381.600 176.024 C 381.600 175.571,381.780 175.200,382.000 175.200 C 382.220 175.200,382.400 174.870,382.400 174.467 C 382.400 174.063,382.523 173.610,382.674 173.459 C 383.816 172.317,384.704 161.517,383.600 162.200 C 383.367 162.344,383.200 161.937,383.200 161.224 C 383.200 160.551,383.020 160.000,382.800 160.000 C 382.580 160.000,382.400 159.640,382.400 159.200 C 382.400 158.760,382.220 158.400,382.000 158.400 C 381.780 158.400,381.600 158.106,381.600 157.747 C 381.600 157.388,381.270 156.803,380.867 156.447 C 380.464 156.091,379.813 155.305,379.421 154.700 C 379.029 154.095,378.547 153.600,378.350 153.600 C 378.154 153.600,377.428 153.060,376.737 152.400 C 376.046 151.740,375.137 151.200,374.717 151.200 C 374.297 151.200,374.040 151.058,374.148 150.885 C 374.255 150.712,373.860 150.530,373.271 150.481 C 372.682 150.433,372.140 150.215,372.067 149.997 C 371.982 149.744,366.569 149.600,357.167 149.600 L 342.400 149.600 342.400 135.600 C 342.400 126.533,342.259 121.600,342.000 121.600 C 341.780 121.600,341.600 120.880,341.600 120.000 C 341.600 119.120,341.420 118.400,341.200 118.400 C 340.980 118.400,340.845 118.255,340.900 118.078 C 341.482 116.207,333.069 107.865,331.840 109.094 C 331.708 109.226,331.600 109.160,331.600 108.948 C 331.600 108.737,330.925 108.519,330.100 108.464 C 329.275 108.410,328.540 108.193,328.467 107.982 C 328.287 107.466,321.600 107.483,321.600 108.000 " stroke="none" fill="#1464c3" fill-rule="evenodd"></path><path id="path2" d="" stroke="none" fill="#20a0f8" fill-rule="evenodd"></path><path id="path3" d="" stroke="none" fill="#20a0f8" fill-rule="evenodd"></path><path id="path4" d="" stroke="none" fill="#20a0f8" fill-rule="evenodd"></path></g></svg>